<svg xmlns="http://www.w3.org/2000/svg" version="1.1" xmlns:xlink="http://www.w3.org/1999/xlink" xmlns:svgjs="http://svgjs.dev/svgjs" width="1440" height="560" preserveAspectRatio="none" viewBox="0 0 1440 560"><g mask="url(&quot;#SvgjsMask1014&quot;)" fill="none"><path d="M-58.95 399.66L-58.95 399.66" stroke="rgba(235, 236, 240, 1)" stroke-width="1.5"></path><path d="M-58.95 399.66L37.81 404.05" stroke="rgba(235, 236, 240, 1)" stroke-width="1.5"></path><path d="M-58.95 399.66L-81.08 507.05" stroke="rgba(235, 236, 240, 1)" stroke-width="1.5"></path><path d="M-58.95 399.66L89.66 541.56" stroke="rgba(235, 236, 240, 1)" stroke-width="1.5"></path><path d="M-58.95 399.66L-110.93 655.03" stroke="rgba(235, 236, 240, 1)" stroke-width="1.5"></path><path d="M-58.95 399.66L244.89 347.34" stroke="rgba(235, 236, 240, 1)" stroke-width="1.5"></path><path d="M-81.08 507.05L-81.08 507.05" stroke="rgba(235, 236, 240, 1)" stroke-width="1.5"></path><path d="M-81.08 507.05L-110.93 655.03" stroke="rgba(235, 236, 240, 1)" stroke-width="1.5"></path><path d="M-81.08 507.05L37.81 404.05" stroke="rgba(235, 236, 240, 1)" stroke-width="1.5"></path><path d="M-81.08 507.05L89.66 541.56" stroke="rgba(235, 236, 240, 1)" stroke-width="1.5"></path><path d="M-81.08 507.05L228.48 539.7" stroke="rgba(235, 236, 240, 1)" stroke-width="1.5"></path><path d="M-81.08 507.05L239.07 644.44" stroke="rgba(235, 236, 240, 1)" stroke-width="1.5"></path><path d="M-110.93 655.03L-110.93 655.03" stroke="rgba(235, 236, 240, 1)" stroke-width="1.5"></path><path d="M-110.93 655.03L89.66 541.56" stroke="rgba(235, 236, 240, 1)" stroke-width="1.5"></path><path d="M-110.93 655.03L37.81 404.05" stroke="rgba(235, 236, 240, 1)" stroke-width="1.5"></path><path d="M-110.93 655.03L239.07 644.44" stroke="rgba(235, 236, 240, 1)" stroke-width="1.5"></path><path d="M-110.93 655.03L228.48 539.7" stroke="rgba(235, 236, 240, 1)" stroke-width="1.5"></path><path d="M37.81 404.05L37.81 404.05" stroke="rgba(235, 236, 240, 1)" stroke-width="1.5"></path><path d="M37.81 404.05L89.66 541.56" stroke="rgba(235, 236, 240, 1)" stroke-width="1.5"></path><path d="M37.81 404.05L244.89 347.34" stroke="rgba(235, 236, 240, 1)" stroke-width="1.5"></path><path d="M37.81 404.05L228.48 539.7" stroke="rgba(235, 236, 240, 1)" stroke-width="1.5"></path><path d="M89.66 541.56L89.66 541.56" stroke="rgba(235, 236, 240, 1)" stroke-width="1.5"></path><path d="M89.66 541.56L228.48 539.7" stroke="rgba(235, 236, 240, 1)" stroke-width="1.5"></path><path d="M89.66 541.56L239.07 644.44" stroke="rgba(235, 236, 240, 1)" stroke-width="1.5"></path><path d="M244.89 347.34L244.89 347.34" stroke="rgba(235, 236, 240, 1)" stroke-width="1.5"></path><path d="M244.89 347.34L396.77 370.96" stroke="rgba(235, 236, 240, 1)" stroke-width="1.5"></path><path d="M244.89 347.34L228.48 539.7" stroke="rgba(235, 236, 240, 1)" stroke-width="1.5"></path><path d="M244.89 347.34L89.66 541.56" stroke="rgba(235, 236, 240, 1)" stroke-width="1.5"></path><path d="M244.89 347.34L403.53 546.67" stroke="rgba(235, 236, 240, 1)" stroke-width="1.5"></path><path d="M228.48 539.7L228.48 539.7" stroke="rgba(235, 236, 240, 1)" stroke-width="1.5"></path><path d="M228.48 539.7L239.07 644.44" stroke="rgba(235, 236, 240, 1)" stroke-width="1.5"></path><path d="M228.48 539.7L403.53 546.67" stroke="rgba(235, 236, 240, 1)" stroke-width="1.5"></path><path d="M239.07 644.44L239.07 644.44" stroke="rgba(235, 236, 240, 1)" stroke-width="1.5"></path><path d="M239.07 644.44L395.19 685.4" stroke="rgba(235, 236, 240, 1)" stroke-width="1.5"></path><path d="M239.07 644.44L403.53 546.67" stroke="rgba(235, 236, 240, 1)" stroke-width="1.5"></path><path d="M239.07 644.44L244.89 347.34" stroke="rgba(235, 236, 240, 1)" stroke-width="1.5"></path><path d="M239.07 644.44L37.81 404.05" stroke="rgba(235, 236, 240, 1)" stroke-width="1.5"></path><path d="M396.77 370.96L396.77 370.96" stroke="rgba(235, 236, 240, 1)" stroke-width="1.5"></path><path d="M396.77 370.96L531.43 400.21" stroke="rgba(235, 236, 240, 1)" stroke-width="1.5"></path><path d="M403.53 546.67L403.53 546.67" stroke="rgba(235, 236, 240, 1)" stroke-width="1.5"></path><path d="M403.53 546.67L395.19 685.4" stroke="rgba(235, 236, 240, 1)" stroke-width="1.5"></path><path d="M403.53 546.67L554.2 562.13" stroke="rgba(235, 236, 240, 1)" stroke-width="1.5"></path><path d="M403.53 546.67L396.77 370.96" stroke="rgba(235, 236, 240, 1)" stroke-width="1.5"></path><path d="M395.19 685.4L395.19 685.4" stroke="rgba(235, 236, 240, 1)" stroke-width="1.5"></path><path d="M395.19 685.4L554.2 562.13" stroke="rgba(235, 236, 240, 1)" stroke-width="1.5"></path><path d="M395.19 685.4L228.48 539.7" stroke="rgba(235, 236, 240, 1)" stroke-width="1.5"></path><path d="M395.19 685.4L396.77 370.96" stroke="rgba(235, 236, 240, 1)" stroke-width="1.5"></path><path d="M531.43 400.21L531.43 400.21" stroke="rgba(235, 236, 240, 1)" stroke-width="1.5"></path><path d="M531.43 400.21L642.5 385.63" stroke="rgba(235, 236, 240, 1)" stroke-width="1.5"></path><path d="M531.43 400.21L554.2 562.13" stroke="rgba(235, 236, 240, 1)" stroke-width="1.5"></path><path d="M531.43 400.21L680.56 520.99" stroke="rgba(235, 236, 240, 1)" stroke-width="1.5"></path><path d="M531.43 400.21L403.53 546.67" stroke="rgba(235, 236, 240, 1)" stroke-width="1.5"></path><path d="M531.43 400.21L703.38 202.3" stroke="rgba(235, 236, 240, 1)" stroke-width="1.5"></path><path d="M554.2 562.13L554.2 562.13" stroke="rgba(235, 236, 240, 1)" stroke-width="1.5"></path><path d="M554.2 562.13L680.56 520.99" stroke="rgba(235, 236, 240, 1)" stroke-width="1.5"></path><path d="M554.2 562.13L642.5 385.63" stroke="rgba(235, 236, 240, 1)" stroke-width="1.5"></path><path d="M703.38 202.3L703.38 202.3" stroke="rgba(235, 236, 240, 1)" stroke-width="1.5"></path><path d="M703.38 202.3L841.76 205.65" stroke="rgba(235, 236, 240, 1)" stroke-width="1.5"></path><path d="M703.38 202.3L642.5 385.63" stroke="rgba(235, 236, 240, 1)" stroke-width="1.5"></path><path d="M703.38 202.3L859.54 87.23" stroke="rgba(235, 236, 240, 1)" stroke-width="1.5"></path><path d="M703.38 202.3L842.12 377.63" stroke="rgba(235, 236, 240, 1)" stroke-width="1.5"></path><path d="M642.5 385.63L642.5 385.63" stroke="rgba(235, 236, 240, 1)" stroke-width="1.5"></path><path d="M642.5 385.63L680.56 520.99" stroke="rgba(235, 236, 240, 1)" stroke-width="1.5"></path><path d="M642.5 385.63L842.12 377.63" stroke="rgba(235, 236, 240, 1)" stroke-width="1.5"></path><path d="M680.56 520.99L680.56 520.99" stroke="rgba(235, 236, 240, 1)" stroke-width="1.5"></path><path d="M680.56 520.99L858.5 522.73" stroke="rgba(235, 236, 240, 1)" stroke-width="1.5"></path><path d="M680.56 520.99L825.55 673.53" stroke="rgba(235, 236, 240, 1)" stroke-width="1.5"></path><path d="M859.54 87.23L859.54 87.23" stroke="rgba(235, 236, 240, 1)" stroke-width="1.5"></path><path d="M859.54 87.23L841.76 205.65" stroke="rgba(235, 236, 240, 1)" stroke-width="1.5"></path><path d="M859.54 87.23L1008.7 89.83" stroke="rgba(235, 236, 240, 1)" stroke-width="1.5"></path><path d="M859.54 87.23L964.72 230.31" stroke="rgba(235, 236, 240, 1)" stroke-width="1.5"></path><path d="M859.54 87.23L1001.3 -44.83" stroke="rgba(235, 236, 240, 1)" stroke-width="1.5"></path><path d="M841.76 205.65L841.76 205.65" stroke="rgba(235, 236, 240, 1)" stroke-width="1.5"></path><path d="M842.12 377.63L842.12 377.63" stroke="rgba(235, 236, 240, 1)" stroke-width="1.5"></path><path d="M842.12 377.63L858.5 522.73" stroke="rgba(235, 236, 240, 1)" stroke-width="1.5"></path><path d="M842.12 377.63L841.76 205.65" stroke="rgba(235, 236, 240, 1)" stroke-width="1.5"></path><path d="M858.5 522.73L858.5 522.73" stroke="rgba(235, 236, 240, 1)" stroke-width="1.5"></path><path d="M858.5 522.73L1010.9 501.48" stroke="rgba(235, 236, 240, 1)" stroke-width="1.5"></path><path d="M858.5 522.73L825.55 673.53" stroke="rgba(235, 236, 240, 1)" stroke-width="1.5"></path><path d="M858.5 522.73L951.43 649.62" stroke="rgba(235, 236, 240, 1)" stroke-width="1.5"></path><path d="M825.55 673.53L825.55 673.53" stroke="rgba(235, 236, 240, 1)" stroke-width="1.5"></path><path d="M825.55 673.53L951.43 649.62" stroke="rgba(235, 236, 240, 1)" stroke-width="1.5"></path><path d="M1001.3 -44.83L1001.3 -44.83" stroke="rgba(235, 236, 240, 1)" stroke-width="1.5"></path><path d="M1001.3 -44.83L1097.16 -109.07" stroke="rgba(235, 236, 240, 1)" stroke-width="1.5"></path><path d="M1001.3 -44.83L1008.7 89.83" stroke="rgba(235, 236, 240, 1)" stroke-width="1.5"></path><path d="M1001.3 -44.83L1127.57 101.37" stroke="rgba(235, 236, 240, 1)" stroke-width="1.5"></path><path d="M1001.3 -44.83L1260.15 -106.02" stroke="rgba(235, 236, 240, 1)" stroke-width="1.5"></path><path d="M1008.7 89.83L1008.7 89.83" stroke="rgba(235, 236, 240, 1)" stroke-width="1.5"></path><path d="M1008.7 89.83L1127.57 101.37" stroke="rgba(235, 236, 240, 1)" stroke-width="1.5"></path><path d="M1008.7 89.83L964.72 230.31" stroke="rgba(235, 236, 240, 1)" stroke-width="1.5"></path><path d="M1008.7 89.83L1143.28 188.37" stroke="rgba(235, 236, 240, 1)" stroke-width="1.5"></path><path d="M1008.7 89.83L841.76 205.65" stroke="rgba(235, 236, 240, 1)" stroke-width="1.5"></path><path d="M964.72 230.31L964.72 230.31" stroke="rgba(235, 236, 240, 1)" stroke-width="1.5"></path><path d="M964.72 230.31L841.76 205.65" stroke="rgba(235, 236, 240, 1)" stroke-width="1.5"></path><path d="M1010.9 501.48L1010.9 501.48" stroke="rgba(235, 236, 240, 1)" stroke-width="1.5"></path><path d="M1010.9 501.48L1159.79 508.82" stroke="rgba(235, 236, 240, 1)" stroke-width="1.5"></path><path d="M1010.9 501.48L951.43 649.62" stroke="rgba(235, 236, 240, 1)" stroke-width="1.5"></path><path d="M1010.9 501.48L842.12 377.63" stroke="rgba(235, 236, 240, 1)" stroke-width="1.5"></path><path d="M951.43 649.62L951.43 649.62" stroke="rgba(235, 236, 240, 1)" stroke-width="1.5"></path><path d="M951.43 649.62L1159.79 508.82" stroke="rgba(235, 236, 240, 1)" stroke-width="1.5"></path><path d="M951.43 649.62L842.12 377.63" stroke="rgba(235, 236, 240, 1)" stroke-width="1.5"></path><path d="M1097.16 -109.07L1097.16 -109.07" stroke="rgba(235, 236, 240, 1)" stroke-width="1.5"></path><path d="M1097.16 -109.07L1260.15 -106.02" stroke="rgba(235, 236, 240, 1)" stroke-width="1.5"></path><path d="M1097.16 -109.07L1127.57 101.37" stroke="rgba(235, 236, 240, 1)" stroke-width="1.5"></path><path d="M1097.16 -109.07L1008.7 89.83" stroke="rgba(235, 236, 240, 1)" stroke-width="1.5"></path><path d="M1127.57 101.37L1127.57 101.37" stroke="rgba(235, 236, 240, 1)" stroke-width="1.5"></path><path d="M1127.57 101.37L1143.28 188.37" stroke="rgba(235, 236, 240, 1)" stroke-width="1.5"></path><path d="M1127.57 101.37L1310.93 42.56" stroke="rgba(235, 236, 240, 1)" stroke-width="1.5"></path><path d="M1143.28 188.37L1143.28 188.37" stroke="rgba(235, 236, 240, 1)" stroke-width="1.5"></path><path d="M1159.79 508.82L1159.79 508.82" stroke="rgba(235, 236, 240, 1)" stroke-width="1.5"></path><path d="M1159.79 508.82L1280.02 556.91" stroke="rgba(235, 236, 240, 1)" stroke-width="1.5"></path><path d="M1159.79 508.82L1287.79 363.74" stroke="rgba(235, 236, 240, 1)" stroke-width="1.5"></path><path d="M1260.15 -106.02L1260.15 -106.02" stroke="rgba(235, 236, 240, 1)" stroke-width="1.5"></path><path d="M1260.15 -106.02L1310.93 42.56" stroke="rgba(235, 236, 240, 1)" stroke-width="1.5"></path><path d="M1310.93 42.56L1310.93 42.56" stroke="rgba(235, 236, 240, 1)" stroke-width="1.5"></path><path d="M1310.93 42.56L1402.75 72.77" stroke="rgba(235, 236, 240, 1)" stroke-width="1.5"></path><path d="M1310.93 42.56L1305.36 256.01" stroke="rgba(235, 236, 240, 1)" stroke-width="1.5"></path><path d="M1305.36 256.01L1305.36 256.01" stroke="rgba(235, 236, 240, 1)" stroke-width="1.5"></path><path d="M1305.36 256.01L1287.79 363.74" stroke="rgba(235, 236, 240, 1)" stroke-width="1.5"></path><path d="M1305.36 256.01L1450.64 254.81" stroke="rgba(235, 236, 240, 1)" stroke-width="1.5"></path><path d="M1305.36 256.01L1396.05 388.53" stroke="rgba(235, 236, 240, 1)" stroke-width="1.5"></path><path d="M1305.36 256.01L1143.28 188.37" stroke="rgba(235, 236, 240, 1)" stroke-width="1.5"></path><path d="M1305.36 256.01L1402.75 72.77" stroke="rgba(235, 236, 240, 1)" stroke-width="1.5"></path><path d="M1287.79 363.74L1287.79 363.74" stroke="rgba(235, 236, 240, 1)" stroke-width="1.5"></path><path d="M1287.79 363.74L1396.05 388.53" stroke="rgba(235, 236, 240, 1)" stroke-width="1.5"></path><path d="M1287.79 363.74L1408.67 492.17" stroke="rgba(235, 236, 240, 1)" stroke-width="1.5"></path><path d="M1287.79 363.74L1280.02 556.91" stroke="rgba(235, 236, 240, 1)" stroke-width="1.5"></path><path d="M1287.79 363.74L1450.64 254.81" stroke="rgba(235, 236, 240, 1)" stroke-width="1.5"></path><path d="M1280.02 556.91L1280.02 556.91" stroke="rgba(235, 236, 240, 1)" stroke-width="1.5"></path><path d="M1280.02 556.91L1307.2 651.73" stroke="rgba(235, 236, 240, 1)" stroke-width="1.5"></path><path d="M1280.02 556.91L1408.67 492.17" stroke="rgba(235, 236, 240, 1)" stroke-width="1.5"></path><path d="M1280.02 556.91L1396.05 388.53" stroke="rgba(235, 236, 240, 1)" stroke-width="1.5"></path><path d="M1280.02 556.91L1432.15 707.94" stroke="rgba(235, 236, 240, 1)" stroke-width="1.5"></path><path d="M1307.2 651.73L1307.2 651.73" stroke="rgba(235, 236, 240, 1)" stroke-width="1.5"></path><path d="M1307.2 651.73L1432.15 707.94" stroke="rgba(235, 236, 240, 1)" stroke-width="1.5"></path><path d="M1307.2 651.73L1408.67 492.17" stroke="rgba(235, 236, 240, 1)" stroke-width="1.5"></path><path d="M1307.2 651.73L1159.79 508.82" stroke="rgba(235, 236, 240, 1)" stroke-width="1.5"></path><path d="M1307.2 651.73L1540.75 529.27" stroke="rgba(235, 236, 240, 1)" stroke-width="1.5"></path><path d="M1402.75 72.77L1402.75 72.77" stroke="rgba(235, 236, 240, 1)" stroke-width="1.5"></path><path d="M1402.75 72.77L1450.64 254.81" stroke="rgba(235, 236, 240, 1)" stroke-width="1.5"></path><path d="M1402.75 72.77L1601.68 52.55" stroke="rgba(235, 236, 240, 1)" stroke-width="1.5"></path><path d="M1450.64 254.81L1450.64 254.81" stroke="rgba(235, 236, 240, 1)" stroke-width="1.5"></path><path d="M1450.64 254.81L1396.05 388.53" stroke="rgba(235, 236, 240, 1)" stroke-width="1.5"></path><path d="M1450.64 254.81L1593.93 235.65" stroke="rgba(235, 236, 240, 1)" stroke-width="1.5"></path><path d="M1396.05 388.53L1396.05 388.53" stroke="rgba(235, 236, 240, 1)" stroke-width="1.5"></path><path d="M1396.05 388.53L1408.67 492.17" stroke="rgba(235, 236, 240, 1)" stroke-width="1.5"></path><path d="M1396.05 388.53L1561.83 353.32" stroke="rgba(235, 236, 240, 1)" stroke-width="1.5"></path><path d="M1408.67 492.17L1408.67 492.17" stroke="rgba(235, 236, 240, 1)" stroke-width="1.5"></path><path d="M1408.67 492.17L1540.75 529.27" stroke="rgba(235, 236, 240, 1)" stroke-width="1.5"></path><path d="M1432.15 707.94L1432.15 707.94" stroke="rgba(235, 236, 240, 1)" stroke-width="1.5"></path><path d="M1432.15 707.94L1592.06 649.26" stroke="rgba(235, 236, 240, 1)" stroke-width="1.5"></path><path d="M1596.32 -51.81L1596.32 -51.81" stroke="rgba(235, 236, 240, 1)" stroke-width="1.5"></path><path d="M1596.32 -51.81L1601.68 52.55" stroke="rgba(235, 236, 240, 1)" stroke-width="1.5"></path><path d="M1596.32 -51.81L1402.75 72.77" stroke="rgba(235, 236, 240, 1)" stroke-width="1.5"></path><path d="M1596.32 -51.81L1593.93 235.65" stroke="rgba(235, 236, 240, 1)" stroke-width="1.5"></path><path d="M1596.32 -51.81L1310.93 42.56" stroke="rgba(235, 236, 240, 1)" stroke-width="1.5"></path><path d="M1601.68 52.55L1601.68 52.55" stroke="rgba(235, 236, 240, 1)" stroke-width="1.5"></path><path d="M1601.68 52.55L1593.93 235.65" stroke="rgba(235, 236, 240, 1)" stroke-width="1.5"></path><path d="M1593.93 235.65L1593.93 235.65" stroke="rgba(235, 236, 240, 1)" stroke-width="1.5"></path><path d="M1593.93 235.65L1561.83 353.32" stroke="rgba(235, 236, 240, 1)" stroke-width="1.5"></path><path d="M1593.93 235.65L1396.05 388.53" stroke="rgba(235, 236, 240, 1)" stroke-width="1.5"></path><path d="M1593.93 235.65L1402.75 72.77" stroke="rgba(235, 236, 240, 1)" stroke-width="1.5"></path><path d="M1561.83 353.32L1561.83 353.32" stroke="rgba(235, 236, 240, 1)" stroke-width="1.5"></path><path d="M1540.75 529.27L1540.75 529.27" stroke="rgba(235, 236, 240, 1)" stroke-width="1.5"></path><path d="M1540.75 529.27L1592.06 649.26" stroke="rgba(235, 236, 240, 1)" stroke-width="1.5"></path><path d="M1540.75 529.27L1561.83 353.32" stroke="rgba(235, 236, 240, 1)" stroke-width="1.5"></path><path d="M1540.75 529.27L1396.05 388.53" stroke="rgba(235, 236, 240, 1)" stroke-width="1.5"></path><path d="M1592.06 649.26L1592.06 649.26" stroke="rgba(235, 236, 240, 1)" stroke-width="1.5"></path><path d="M1592.06 649.26L1408.67 492.17" stroke="rgba(235, 236, 240, 1)" stroke-width="1.5"></path><path d="M1592.06 649.26L1307.2 651.73" stroke="rgba(235, 236, 240, 1)" stroke-width="1.5"></path><path d="M1592.06 649.26L1561.83 353.32" stroke="rgba(235, 236, 240, 1)" stroke-width="1.5"></path><path d="M1592.06 649.26L1280.02 556.91" stroke="rgba(235, 236, 240, 1)" stroke-width="1.5"></path><circle r="5" cx="-58.95" cy="399.66" fill="rgba(235, 236, 240, 1)"></circle><circle r="5" cx="-81.08" cy="507.05" fill="rgba(235, 236, 240, 1)"></circle><circle r="5" cx="-110.93" cy="655.03" fill="rgba(235, 236, 240, 1)"></circle><circle r="5" cx="37.81" cy="404.05" fill="rgba(235, 236, 240, 1)"></circle><circle r="5" cx="89.66" cy="541.56" fill="rgba(235, 236, 240, 1)"></circle><circle r="5" cx="244.89" cy="347.34" fill="rgba(235, 236, 240, 1)"></circle><circle r="5" cx="228.48" cy="539.7" fill="rgba(235, 236, 240, 1)"></circle><circle r="5" cx="239.07" cy="644.44" fill="rgba(235, 236, 240, 1)"></circle><circle r="5" cx="396.77" cy="370.96" fill="rgba(235, 236, 240, 1)"></circle><circle r="5" cx="403.53" cy="546.67" fill="rgba(235, 236, 240, 1)"></circle><circle r="5" cx="395.19" cy="685.4" fill="rgba(235, 236, 240, 1)"></circle><circle r="5" cx="531.43" cy="400.21" fill="rgba(235, 236, 240, 1)"></circle><circle r="5" cx="554.2" cy="562.13" fill="rgba(235, 236, 240, 1)"></circle><circle r="5" cx="703.38" cy="202.3" fill="rgba(235, 236, 240, 1)"></circle><circle r="5" cx="642.5" cy="385.63" fill="rgba(235, 236, 240, 1)"></circle><circle r="5" cx="680.56" cy="520.99" fill="rgba(235, 236, 240, 1)"></circle><circle r="5" cx="859.54" cy="87.23" fill="rgba(235, 236, 240, 1)"></circle><circle r="5" cx="841.76" cy="205.65" fill="rgba(235, 236, 240, 1)"></circle><circle r="5" cx="842.12" cy="377.63" fill="rgba(235, 236, 240, 1)"></circle><circle r="5" cx="858.5" cy="522.73" fill="rgba(235, 236, 240, 1)"></circle><circle r="5" cx="825.55" cy="673.53" fill="rgba(235, 236, 240, 1)"></circle><circle r="5" cx="1001.3" cy="-44.83" fill="rgba(235, 236, 240, 1)"></circle><circle r="5" cx="1008.7" cy="89.83" fill="rgba(235, 236, 240, 1)"></circle><circle r="5" cx="964.72" cy="230.31" fill="rgba(235, 236, 240, 1)"></circle><circle r="5" cx="1010.9" cy="501.48" fill="rgba(235, 236, 240, 1)"></circle><circle r="5" cx="951.43" cy="649.62" fill="rgba(235, 236, 240, 1)"></circle><circle r="5" cx="1097.16" cy="-109.07" fill="rgba(235, 236, 240, 1)"></circle><circle r="5" cx="1127.57" cy="101.37" fill="rgba(235, 236, 240, 1)"></circle><circle r="5" cx="1143.28" cy="188.37" fill="rgba(235, 236, 240, 1)"></circle><circle r="5" cx="1159.79" cy="508.82" fill="rgba(235, 236, 240, 1)"></circle><circle r="5" cx="1260.15" cy="-106.02" fill="rgba(235, 236, 240, 1)"></circle><circle r="5" cx="1310.93" cy="42.56" fill="rgba(235, 236, 240, 1)"></circle><circle r="5" cx="1305.36" cy="256.01" fill="rgba(235, 236, 240, 1)"></circle><circle r="5" cx="1287.79" cy="363.74" fill="rgba(235, 236, 240, 1)"></circle><circle r="5" cx="1280.02" cy="556.91" fill="rgba(235, 236, 240, 1)"></circle><circle r="5" cx="1307.2" cy="651.73" fill="rgba(235, 236, 240, 1)"></circle><circle r="5" cx="1402.75" cy="72.77" fill="rgba(235, 236, 240, 1)"></circle><circle r="5" cx="1450.64" cy="254.81" fill="rgba(235, 236, 240, 1)"></circle><circle r="5" cx="1396.05" cy="388.53" fill="rgba(235, 236, 240, 1)"></circle><circle r="5" cx="1408.67" cy="492.17" fill="rgba(235, 236, 240, 1)"></circle><circle r="5" cx="1432.15" cy="707.94" fill="rgba(235, 236, 240, 1)"></circle><circle r="5" cx="1596.32" cy="-51.81" fill="rgba(235, 236, 240, 1)"></circle><circle r="5" cx="1601.68" cy="52.55" fill="rgba(235, 236, 240, 1)"></circle><circle r="5" cx="1593.93" cy="235.65" fill="rgba(235, 236, 240, 1)"></circle><circle r="5" cx="1561.83" cy="353.32" fill="rgba(235, 236, 240, 1)"></circle><circle r="5" cx="1540.75" cy="529.27" fill="rgba(235, 236, 240, 1)"></circle><circle r="5" cx="1592.06" cy="649.26" fill="rgba(235, 236, 240, 1)"></circle><path d="M-101.08 693.11L-101.08 693.11" stroke="hsl(240, 2.7%, 92.3%)" stroke-width="1.5"></path><path d="M-101.08 693.11L44.51 705.33" stroke="hsl(240, 2.7%, 92.3%)" stroke-width="1.5"></path><path d="M-101.08 693.11L-76.89 538.08" stroke="hsl(240, 2.7%, 92.3%)" stroke-width="1.5"></path><path d="M-101.08 693.11L98.14 557.69" stroke="hsl(240, 2.7%, 92.3%)" stroke-width="1.5"></path><path d="M1294.39 364.5L1294.39 364.5" stroke="hsl(240, 2.7%, 92.3%)" stroke-width="1.5"></path><path d="M1294.39 364.5L1298.11 494.42" stroke="hsl(240, 2.7%, 92.3%)" stroke-width="1.5"></path><path d="M1294.39 364.5L1394.73 257.73" stroke="hsl(240, 2.7%, 92.3%)" stroke-width="1.5"></path><path d="M1294.39 364.5L1240.17 217.24" stroke="hsl(240, 2.7%, 92.3%)" stroke-width="1.5"></path><path d="M1294.39 364.5L1133.4 406.42" stroke="hsl(240, 2.7%, 92.3%)" stroke-width="1.5"></path><path d="M1294.39 364.5L1419.72 550.93" stroke="hsl(240, 2.7%, 92.3%)" stroke-width="1.5"></path><path d="M1434.63 -61.24L1434.63 -61.24" stroke="hsl(240, 2.7%, 92.3%)" stroke-width="1.5"></path><path d="M1434.63 -61.24L1393.89 68.17" stroke="hsl(240, 2.7%, 92.3%)" stroke-width="1.5"></path><path d="M1434.63 -61.24L1296.12 -43.27" stroke="hsl(240, 2.7%, 92.3%)" stroke-width="1.5"></path><path d="M1434.63 -61.24L1602.02 -81.86" stroke="hsl(240, 2.7%, 92.3%)" stroke-width="1.5"></path><path d="M1452.82 645.77L1452.82 645.77" stroke="hsl(240, 2.7%, 92.3%)" stroke-width="1.5"></path><path d="M1452.82 645.77L1419.72 550.93" stroke="hsl(240, 2.7%, 92.3%)" stroke-width="1.5"></path><path d="M1452.82 645.77L1596.15 662.5" stroke="hsl(240, 2.7%, 92.3%)" stroke-width="1.5"></path><path d="M1452.82 645.77L1551.97 535.86" stroke="hsl(240, 2.7%, 92.3%)" stroke-width="1.5"></path><path d="M1452.82 645.77L1288.02 642.68" stroke="hsl(240, 2.7%, 92.3%)" stroke-width="1.5"></path><path d="M1452.82 645.77L1298.11 494.42" stroke="hsl(240, 2.7%, 92.3%)" stroke-width="1.5"></path><path d="M1596.68 200.35L1596.68 200.35" stroke="hsl(240, 2.7%, 92.3%)" stroke-width="1.5"></path><path d="M1596.68 200.35L1566.14 356.15" stroke="hsl(240, 2.7%, 92.3%)" stroke-width="1.5"></path><path d="M1596.68 200.35L1394.73 257.73" stroke="hsl(240, 2.7%, 92.3%)" stroke-width="1.5"></path><path d="M1596.68 200.35L1393.89 68.17" stroke="hsl(240, 2.7%, 92.3%)" stroke-width="1.5"></path><path d="M1596.68 200.35L1602.02 -81.86" stroke="hsl(240, 2.7%, 92.3%)" stroke-width="1.5"></path><path d="M1566.14 356.15L1566.14 356.15" stroke="hsl(240, 2.7%, 92.3%)" stroke-width="1.5"></path><path d="M1566.14 356.15L1551.97 535.86" stroke="hsl(240, 2.7%, 92.3%)" stroke-width="1.5"></path><path d="M1566.14 356.15L1394.73 257.73" stroke="hsl(240, 2.7%, 92.3%)" stroke-width="1.5"></path><path d="M-76.89 538.08L-76.89 538.08" stroke="hsl(240, 2.7%, 92.3%)" stroke-width="1.5"></path><path d="M98.14 557.69L98.14 557.69" stroke="hsl(240, 2.7%, 92.3%)" stroke-width="1.5"></path><path d="M98.14 557.69L44.51 705.33" stroke="hsl(240, 2.7%, 92.3%)" stroke-width="1.5"></path><path d="M98.14 557.69L252.05 524.54" stroke="hsl(240, 2.7%, 92.3%)" stroke-width="1.5"></path><path d="M98.14 557.69L239.43 642.33" stroke="hsl(240, 2.7%, 92.3%)" stroke-width="1.5"></path><path d="M98.14 557.69L-76.89 538.08" stroke="hsl(240, 2.7%, 92.3%)" stroke-width="1.5"></path><path d="M44.51 705.33L44.51 705.33" stroke="hsl(240, 2.7%, 92.3%)" stroke-width="1.5"></path><path d="M44.51 705.33L239.43 642.33" stroke="hsl(240, 2.7%, 92.3%)" stroke-width="1.5"></path><path d="M252.05 524.54L252.05 524.54" stroke="hsl(240, 2.7%, 92.3%)" stroke-width="1.5"></path><path d="M252.05 524.54L239.43 642.33" stroke="hsl(240, 2.7%, 92.3%)" stroke-width="1.5"></path><path d="M252.05 524.54L397.19 506.95" stroke="hsl(240, 2.7%, 92.3%)" stroke-width="1.5"></path><path d="M239.43 642.33L239.43 642.33" stroke="hsl(240, 2.7%, 92.3%)" stroke-width="1.5"></path><path d="M397.19 506.95L397.19 506.95" stroke="hsl(240, 2.7%, 92.3%)" stroke-width="1.5"></path><path d="M397.19 506.95L510.27 525.81" stroke="hsl(240, 2.7%, 92.3%)" stroke-width="1.5"></path><path d="M510.27 525.81L510.27 525.81" stroke="hsl(240, 2.7%, 92.3%)" stroke-width="1.5"></path><path d="M510.27 525.81L505.54 650.46" stroke="hsl(240, 2.7%, 92.3%)" stroke-width="1.5"></path><path d="M505.54 650.46L505.54 650.46" stroke="hsl(240, 2.7%, 92.3%)" stroke-width="1.5"></path><path d="M505.54 650.46L397.19 506.95" stroke="hsl(240, 2.7%, 92.3%)" stroke-width="1.5"></path><path d="M505.54 650.46L692.04 675.05" stroke="hsl(240, 2.7%, 92.3%)" stroke-width="1.5"></path><path d="M505.54 650.46L686.85 547.45" stroke="hsl(240, 2.7%, 92.3%)" stroke-width="1.5"></path><path d="M505.54 650.46L239.43 642.33" stroke="hsl(240, 2.7%, 92.3%)" stroke-width="1.5"></path><path d="M648.7 378.89L648.7 378.89" stroke="hsl(240, 2.7%, 92.3%)" stroke-width="1.5"></path><path d="M648.7 378.89L792.4 384.62" stroke="hsl(240, 2.7%, 92.3%)" stroke-width="1.5"></path><path d="M686.85 547.45L686.85 547.45" stroke="hsl(240, 2.7%, 92.3%)" stroke-width="1.5"></path><path d="M686.85 547.45L800.96 507.39" stroke="hsl(240, 2.7%, 92.3%)" stroke-width="1.5"></path><path d="M686.85 547.45L692.04 675.05" stroke="hsl(240, 2.7%, 92.3%)" stroke-width="1.5"></path><path d="M692.04 675.05L692.04 675.05" stroke="hsl(240, 2.7%, 92.3%)" stroke-width="1.5"></path><path d="M692.04 675.05L798.95 639.88" stroke="hsl(240, 2.7%, 92.3%)" stroke-width="1.5"></path><path d="M792.4 384.62L792.4 384.62" stroke="hsl(240, 2.7%, 92.3%)" stroke-width="1.5"></path><path d="M792.4 384.62L800.96 507.39" stroke="hsl(240, 2.7%, 92.3%)" stroke-width="1.5"></path><path d="M792.4 384.62L686.85 547.45" stroke="hsl(240, 2.7%, 92.3%)" stroke-width="1.5"></path><path d="M792.4 384.62L1010.01 388.94" stroke="hsl(240, 2.7%, 92.3%)" stroke-width="1.5"></path><path d="M792.4 384.62L968.18 555.15" stroke="hsl(240, 2.7%, 92.3%)" stroke-width="1.5"></path><path d="M792.4 384.62L798.95 639.88" stroke="hsl(240, 2.7%, 92.3%)" stroke-width="1.5"></path><path d="M800.96 507.39L800.96 507.39" stroke="hsl(240, 2.7%, 92.3%)" stroke-width="1.5"></path><path d="M800.96 507.39L798.95 639.88" stroke="hsl(240, 2.7%, 92.3%)" stroke-width="1.5"></path><path d="M800.96 507.39L968.18 555.15" stroke="hsl(240, 2.7%, 92.3%)" stroke-width="1.5"></path><path d="M800.96 507.39L648.7 378.89" stroke="hsl(240, 2.7%, 92.3%)" stroke-width="1.5"></path><path d="M800.96 507.39L692.04 675.05" stroke="hsl(240, 2.7%, 92.3%)" stroke-width="1.5"></path><path d="M798.95 639.88L798.95 639.88" stroke="hsl(240, 2.7%, 92.3%)" stroke-width="1.5"></path><path d="M1010.01 388.94L1010.01 388.94" stroke="hsl(240, 2.7%, 92.3%)" stroke-width="1.5"></path><path d="M1010.01 388.94L1133.4 406.42" stroke="hsl(240, 2.7%, 92.3%)" stroke-width="1.5"></path><path d="M1010.01 388.94L1097.15 489.87" stroke="hsl(240, 2.7%, 92.3%)" stroke-width="1.5"></path><path d="M1010.01 388.94L968.18 555.15" stroke="hsl(240, 2.7%, 92.3%)" stroke-width="1.5"></path><path d="M1010.01 388.94L1103.11 203.44" stroke="hsl(240, 2.7%, 92.3%)" stroke-width="1.5"></path><path d="M968.18 555.15L968.18 555.15" stroke="hsl(240, 2.7%, 92.3%)" stroke-width="1.5"></path><path d="M968.18 555.15L1001.22 689.31" stroke="hsl(240, 2.7%, 92.3%)" stroke-width="1.5"></path><path d="M968.18 555.15L1097.15 489.87" stroke="hsl(240, 2.7%, 92.3%)" stroke-width="1.5"></path><path d="M968.18 555.15L1117.08 654.92" stroke="hsl(240, 2.7%, 92.3%)" stroke-width="1.5"></path><path d="M968.18 555.15L798.95 639.88" stroke="hsl(240, 2.7%, 92.3%)" stroke-width="1.5"></path><path d="M1001.22 689.31L1001.22 689.31" stroke="hsl(240, 2.7%, 92.3%)" stroke-width="1.5"></path><path d="M1001.22 689.31L1117.08 654.92" stroke="hsl(240, 2.7%, 92.3%)" stroke-width="1.5"></path><path d="M1001.22 689.31L798.95 639.88" stroke="hsl(240, 2.7%, 92.3%)" stroke-width="1.5"></path><path d="M1001.22 689.31L1097.15 489.87" stroke="hsl(240, 2.7%, 92.3%)" stroke-width="1.5"></path><path d="M1161.62 91.32L1161.62 91.32" stroke="hsl(240, 2.7%, 92.3%)" stroke-width="1.5"></path><path d="M1161.62 91.32L1103.11 203.44" stroke="hsl(240, 2.7%, 92.3%)" stroke-width="1.5"></path><path d="M1161.62 91.32L1301.74 72.81" stroke="hsl(240, 2.7%, 92.3%)" stroke-width="1.5"></path><path d="M1161.62 91.32L1240.17 217.24" stroke="hsl(240, 2.7%, 92.3%)" stroke-width="1.5"></path><path d="M1161.62 91.32L1296.12 -43.27" stroke="hsl(240, 2.7%, 92.3%)" stroke-width="1.5"></path><path d="M1161.62 91.32L1393.89 68.17" stroke="hsl(240, 2.7%, 92.3%)" stroke-width="1.5"></path><path d="M1103.11 203.44L1103.11 203.44" stroke="hsl(240, 2.7%, 92.3%)" stroke-width="1.5"></path><path d="M1103.11 203.44L1240.17 217.24" stroke="hsl(240, 2.7%, 92.3%)" stroke-width="1.5"></path><path d="M1103.11 203.44L1133.4 406.42" stroke="hsl(240, 2.7%, 92.3%)" stroke-width="1.5"></path><path d="M1133.4 406.42L1133.4 406.42" stroke="hsl(240, 2.7%, 92.3%)" stroke-width="1.5"></path><path d="M1133.4 406.42L1097.15 489.87" stroke="hsl(240, 2.7%, 92.3%)" stroke-width="1.5"></path><path d="M1097.15 489.87L1097.15 489.87" stroke="hsl(240, 2.7%, 92.3%)" stroke-width="1.5"></path><path d="M1097.15 489.87L1117.08 654.92" stroke="hsl(240, 2.7%, 92.3%)" stroke-width="1.5"></path><path d="M1097.15 489.87L1298.11 494.42" stroke="hsl(240, 2.7%, 92.3%)" stroke-width="1.5"></path><path d="M1117.08 654.92L1117.08 654.92" stroke="hsl(240, 2.7%, 92.3%)" stroke-width="1.5"></path><path d="M1117.08 654.92L1288.02 642.68" stroke="hsl(240, 2.7%, 92.3%)" stroke-width="1.5"></path><path d="M1296.12 -43.27L1296.12 -43.27" stroke="hsl(240, 2.7%, 92.3%)" stroke-width="1.5"></path><path d="M1296.12 -43.27L1301.74 72.81" stroke="hsl(240, 2.7%, 92.3%)" stroke-width="1.5"></path><path d="M1296.12 -43.27L1393.89 68.17" stroke="hsl(240, 2.7%, 92.3%)" stroke-width="1.5"></path><path d="M1296.12 -43.27L1240.17 217.24" stroke="hsl(240, 2.7%, 92.3%)" stroke-width="1.5"></path><path d="M1296.12 -43.27L1602.02 -81.86" stroke="hsl(240, 2.7%, 92.3%)" stroke-width="1.5"></path><path d="M1301.74 72.81L1301.74 72.81" stroke="hsl(240, 2.7%, 92.3%)" stroke-width="1.5"></path><path d="M1301.74 72.81L1393.89 68.17" stroke="hsl(240, 2.7%, 92.3%)" stroke-width="1.5"></path><path d="M1301.74 72.81L1240.17 217.24" stroke="hsl(240, 2.7%, 92.3%)" stroke-width="1.5"></path><path d="M1240.17 217.24L1240.17 217.24" stroke="hsl(240, 2.7%, 92.3%)" stroke-width="1.5"></path><path d="M1240.17 217.24L1394.73 257.73" stroke="hsl(240, 2.7%, 92.3%)" stroke-width="1.5"></path><path d="M1298.11 494.42L1298.11 494.42" stroke="hsl(240, 2.7%, 92.3%)" stroke-width="1.5"></path><path d="M1298.11 494.42L1419.72 550.93" stroke="hsl(240, 2.7%, 92.3%)" stroke-width="1.5"></path><path d="M1298.11 494.42L1288.02 642.68" stroke="hsl(240, 2.7%, 92.3%)" stroke-width="1.5"></path><path d="M1298.11 494.42L1133.4 406.42" stroke="hsl(240, 2.7%, 92.3%)" stroke-width="1.5"></path><path d="M1288.02 642.68L1288.02 642.68" stroke="hsl(240, 2.7%, 92.3%)" stroke-width="1.5"></path><path d="M1288.02 642.68L1419.72 550.93" stroke="hsl(240, 2.7%, 92.3%)" stroke-width="1.5"></path><path d="M1288.02 642.68L1097.15 489.87" stroke="hsl(240, 2.7%, 92.3%)" stroke-width="1.5"></path><path d="M1393.89 68.17L1393.89 68.17" stroke="hsl(240, 2.7%, 92.3%)" stroke-width="1.5"></path><path d="M1394.73 257.73L1394.73 257.73" stroke="hsl(240, 2.7%, 92.3%)" stroke-width="1.5"></path><path d="M1394.73 257.73L1393.89 68.17" stroke="hsl(240, 2.7%, 92.3%)" stroke-width="1.5"></path><path d="M1419.72 550.93L1419.72 550.93" stroke="hsl(240, 2.7%, 92.3%)" stroke-width="1.5"></path><path d="M1419.72 550.93L1551.97 535.86" stroke="hsl(240, 2.7%, 92.3%)" stroke-width="1.5"></path><path d="M1602.02 -81.86L1602.02 -81.86" stroke="hsl(240, 2.7%, 92.3%)" stroke-width="1.5"></path><path d="M1602.02 -81.86L1393.89 68.17" stroke="hsl(240, 2.7%, 92.3%)" stroke-width="1.5"></path><path d="M1551.97 535.86L1551.97 535.86" stroke="hsl(240, 2.7%, 92.3%)" stroke-width="1.5"></path><path d="M1551.97 535.86L1596.15 662.5" stroke="hsl(240, 2.7%, 92.3%)" stroke-width="1.5"></path><path d="M1551.97 535.86L1298.11 494.42" stroke="hsl(240, 2.7%, 92.3%)" stroke-width="1.5"></path><path d="M1551.97 535.86L1288.02 642.68" stroke="hsl(240, 2.7%, 92.3%)" stroke-width="1.5"></path><path d="M1596.15 662.5L1596.15 662.5" stroke="hsl(240, 2.7%, 92.3%)" stroke-width="1.5"></path><path d="M1596.15 662.5L1419.72 550.93" stroke="hsl(240, 2.7%, 92.3%)" stroke-width="1.5"></path><circle r="25" cx="-101.08" cy="693.11" fill="url(&quot;#SvgjsRadialGradient1015&quot;)"></circle><circle r="25" cx="1294.39" cy="364.5" fill="url(&quot;#SvgjsRadialGradient1015&quot;)"></circle><circle r="25" cx="1434.63" cy="-61.24" fill="url(&quot;#SvgjsRadialGradient1015&quot;)"></circle><circle r="25" cx="1452.82" cy="645.77" fill="url(&quot;#SvgjsRadialGradient1015&quot;)"></circle><circle r="25" cx="1596.68" cy="200.35" fill="url(&quot;#SvgjsRadialGradient1015&quot;)"></circle><circle r="25" cx="1566.14" cy="356.15" fill="url(&quot;#SvgjsRadialGradient1015&quot;)"></circle><circle r="5" cx="-76.89" cy="538.08" fill="#d9d9db"></circle><circle r="5" cx="98.14" cy="557.69" fill="#d9d9db"></circle><circle r="5" cx="44.51" cy="705.33" fill="#d9d9db"></circle><circle r="5" cx="252.05" cy="524.54" fill="#d9d9db"></circle><circle r="5" cx="239.43" cy="642.33" fill="#d9d9db"></circle><circle r="5" cx="397.19" cy="506.95" fill="#d9d9db"></circle><circle r="5" cx="510.27" cy="525.81" fill="#d9d9db"></circle><circle r="5" cx="505.54" cy="650.46" fill="#d9d9db"></circle><circle r="5" cx="648.7" cy="378.89" fill="#d9d9db"></circle><circle r="5" cx="686.85" cy="547.45" fill="#d9d9db"></circle><circle r="5" cx="692.04" cy="675.05" fill="#d9d9db"></circle><circle r="5" cx="792.4" cy="384.62" fill="#d9d9db"></circle><circle r="5" cx="800.96" cy="507.39" fill="#d9d9db"></circle><circle r="5" cx="798.95" cy="639.88" fill="#d9d9db"></circle><circle r="5" cx="1010.01" cy="388.94" fill="#d9d9db"></circle><circle r="5" cx="968.18" cy="555.15" fill="#d9d9db"></circle><circle r="5" cx="1001.22" cy="689.31" fill="#d9d9db"></circle><circle r="5" cx="1161.62" cy="91.32" fill="#d9d9db"></circle><circle r="5" cx="1103.11" cy="203.44" fill="#d9d9db"></circle><circle r="5" cx="1133.4" cy="406.42" fill="#d9d9db"></circle><circle r="5" cx="1097.15" cy="489.87" fill="#d9d9db"></circle><circle r="5" cx="1117.08" cy="654.92" fill="#d9d9db"></circle><circle r="5" cx="1296.12" cy="-43.27" fill="#d9d9db"></circle><circle r="5" cx="1301.74" cy="72.81" fill="#d9d9db"></circle><circle r="5" cx="1240.17" cy="217.24" fill="#d9d9db"></circle><circle r="5" cx="1298.11" cy="494.42" fill="#d9d9db"></circle><circle r="5" cx="1288.02" cy="642.68" fill="#d9d9db"></circle><circle r="5" cx="1393.89" cy="68.17" fill="#d9d9db"></circle><circle r="5" cx="1394.73" cy="257.73" fill="#d9d9db"></circle><circle r="5" cx="1419.72" cy="550.93" fill="#d9d9db"></circle><circle r="5" cx="1602.02" cy="-81.86" fill="#d9d9db"></circle><circle r="5" cx="1551.97" cy="535.86" fill="#d9d9db"></circle><circle r="5" cx="1596.15" cy="662.5" fill="#d9d9db"></circle></g><defs><mask id="SvgjsMask1014"><rect width="1440" height="560" fill="#ffffff"></rect></mask><radialGradient id="SvgjsRadialGradient1015"><stop stop-color="#ffffff" offset="0.1"></stop><stop stop-color="rgba(179, 179, 183, 1)" offset="0.2"></stop><stop stop-color="rgba(179, 179, 183, 0)" offset="1"></stop></radialGradient></defs></svg>