<svg xmlns="http://www.w3.org/2000/svg" version="1.1" xmlns:xlink="http://www.w3.org/1999/xlink" xmlns:svgjs="http://svgjs.dev/svgjs" width="1440" height="300" preserveAspectRatio="none" viewBox="0 0 1440 300"><g mask="url(&quot;#SvgjsMask1042&quot;)" fill="none"><rect width="1440" height="300" x="0" y="0" fill="rgba(10, 10, 10, 1)"></rect><path d="M-108.44 239.67L-108.44 239.67" stroke="rgba(57, 57, 57, 1)" stroke-width="1.5"></path><path d="M-108.44 239.67L-52.05 337.76" stroke="rgba(57, 57, 57, 1)" stroke-width="1.5"></path><path d="M-108.44 239.67L110.85 213.58" stroke="rgba(57, 57, 57, 1)" stroke-width="1.5"></path><path d="M-108.44 239.67L62.68 388.87" stroke="rgba(57, 57, 57, 1)" stroke-width="1.5"></path><path d="M-108.44 239.67L218.82 250.14" stroke="rgba(57, 57, 57, 1)" stroke-width="1.5"></path><path d="M-108.44 239.67L247.6 386.38" stroke="rgba(57, 57, 57, 1)" stroke-width="1.5"></path><path d="M-52.05 337.76L-52.05 337.76" stroke="rgba(57, 57, 57, 1)" stroke-width="1.5"></path><path d="M-52.05 337.76L62.68 388.87" stroke="rgba(57, 57, 57, 1)" stroke-width="1.5"></path><path d="M-52.05 337.76L110.85 213.58" stroke="rgba(57, 57, 57, 1)" stroke-width="1.5"></path><path d="M-52.05 337.76L218.82 250.14" stroke="rgba(57, 57, 57, 1)" stroke-width="1.5"></path><path d="M-52.05 337.76L247.6 386.38" stroke="rgba(57, 57, 57, 1)" stroke-width="1.5"></path><path d="M-52.05 337.76L384.51 383.11" stroke="rgba(57, 57, 57, 1)" stroke-width="1.5"></path><path d="M110.85 213.58L110.85 213.58" stroke="rgba(57, 57, 57, 1)" stroke-width="1.5"></path><path d="M110.85 213.58L218.82 250.14" stroke="rgba(57, 57, 57, 1)" stroke-width="1.5"></path><path d="M110.85 213.58L62.68 388.87" stroke="rgba(57, 57, 57, 1)" stroke-width="1.5"></path><path d="M110.85 213.58L247.6 386.38" stroke="rgba(57, 57, 57, 1)" stroke-width="1.5"></path><path d="M110.85 213.58L382.48 234.5" stroke="rgba(57, 57, 57, 1)" stroke-width="1.5"></path><path d="M62.68 388.87L62.68 388.87" stroke="rgba(57, 57, 57, 1)" stroke-width="1.5"></path><path d="M62.68 388.87L247.6 386.38" stroke="rgba(57, 57, 57, 1)" stroke-width="1.5"></path><path d="M62.68 388.87L218.82 250.14" stroke="rgba(57, 57, 57, 1)" stroke-width="1.5"></path><path d="M218.82 250.14L218.82 250.14" stroke="rgba(57, 57, 57, 1)" stroke-width="1.5"></path><path d="M218.82 250.14L247.6 386.38" stroke="rgba(57, 57, 57, 1)" stroke-width="1.5"></path><path d="M247.6 386.38L247.6 386.38" stroke="rgba(57, 57, 57, 1)" stroke-width="1.5"></path><path d="M247.6 386.38L384.51 383.11" stroke="rgba(57, 57, 57, 1)" stroke-width="1.5"></path><path d="M382.48 234.5L382.48 234.5" stroke="rgba(57, 57, 57, 1)" stroke-width="1.5"></path><path d="M382.48 234.5L384.51 383.11" stroke="rgba(57, 57, 57, 1)" stroke-width="1.5"></path><path d="M382.48 234.5L218.82 250.14" stroke="rgba(57, 57, 57, 1)" stroke-width="1.5"></path><path d="M382.48 234.5L530.47 356.15" stroke="rgba(57, 57, 57, 1)" stroke-width="1.5"></path><path d="M382.48 234.5L247.6 386.38" stroke="rgba(57, 57, 57, 1)" stroke-width="1.5"></path><path d="M382.48 234.5L666.68 190.21" stroke="rgba(57, 57, 57, 1)" stroke-width="1.5"></path><path d="M384.51 383.11L384.51 383.11" stroke="rgba(57, 57, 57, 1)" stroke-width="1.5"></path><path d="M384.51 383.11L530.47 356.15" stroke="rgba(57, 57, 57, 1)" stroke-width="1.5"></path><path d="M384.51 383.11L218.82 250.14" stroke="rgba(57, 57, 57, 1)" stroke-width="1.5"></path><path d="M384.51 383.11L62.68 388.87" stroke="rgba(57, 57, 57, 1)" stroke-width="1.5"></path><path d="M530.47 356.15L530.47 356.15" stroke="rgba(57, 57, 57, 1)" stroke-width="1.5"></path><path d="M530.47 356.15L708.94 350.58" stroke="rgba(57, 57, 57, 1)" stroke-width="1.5"></path><path d="M666.68 190.21L666.68 190.21" stroke="rgba(57, 57, 57, 1)" stroke-width="1.5"></path><path d="M666.68 190.21L708.94 350.58" stroke="rgba(57, 57, 57, 1)" stroke-width="1.5"></path><path d="M666.68 190.21L861.21 213.78" stroke="rgba(57, 57, 57, 1)" stroke-width="1.5"></path><path d="M666.68 190.21L530.47 356.15" stroke="rgba(57, 57, 57, 1)" stroke-width="1.5"></path><path d="M666.68 190.21L851.27 80.42" stroke="rgba(57, 57, 57, 1)" stroke-width="1.5"></path><path d="M708.94 350.58L708.94 350.58" stroke="rgba(57, 57, 57, 1)" stroke-width="1.5"></path><path d="M708.94 350.58L804.48 388.23" stroke="rgba(57, 57, 57, 1)" stroke-width="1.5"></path><path d="M708.94 350.58L861.21 213.78" stroke="rgba(57, 57, 57, 1)" stroke-width="1.5"></path><path d="M851.27 80.42L851.27 80.42" stroke="rgba(57, 57, 57, 1)" stroke-width="1.5"></path><path d="M851.27 80.42L861.21 213.78" stroke="rgba(57, 57, 57, 1)" stroke-width="1.5"></path><path d="M851.27 80.42L1002.43 39.81" stroke="rgba(57, 57, 57, 1)" stroke-width="1.5"></path><path d="M851.27 80.42L969.39 -62.06" stroke="rgba(57, 57, 57, 1)" stroke-width="1.5"></path><path d="M851.27 80.42L708.94 350.58" stroke="rgba(57, 57, 57, 1)" stroke-width="1.5"></path><path d="M851.27 80.42L1160.32 107.29" stroke="rgba(57, 57, 57, 1)" stroke-width="1.5"></path><path d="M861.21 213.78L861.21 213.78" stroke="rgba(57, 57, 57, 1)" stroke-width="1.5"></path><path d="M804.48 388.23L804.48 388.23" stroke="rgba(57, 57, 57, 1)" stroke-width="1.5"></path><path d="M804.48 388.23L861.21 213.78" stroke="rgba(57, 57, 57, 1)" stroke-width="1.5"></path><path d="M804.48 388.23L1004.31 406.64" stroke="rgba(57, 57, 57, 1)" stroke-width="1.5"></path><path d="M804.48 388.23L666.68 190.21" stroke="rgba(57, 57, 57, 1)" stroke-width="1.5"></path><path d="M804.48 388.23L530.47 356.15" stroke="rgba(57, 57, 57, 1)" stroke-width="1.5"></path><path d="M804.48 388.23L851.27 80.42" stroke="rgba(57, 57, 57, 1)" stroke-width="1.5"></path><path d="M969.39 -62.06L969.39 -62.06" stroke="rgba(57, 57, 57, 1)" stroke-width="1.5"></path><path d="M969.39 -62.06L1002.43 39.81" stroke="rgba(57, 57, 57, 1)" stroke-width="1.5"></path><path d="M969.39 -62.06L1161.01 -70.89" stroke="rgba(57, 57, 57, 1)" stroke-width="1.5"></path><path d="M969.39 -62.06L1160.32 107.29" stroke="rgba(57, 57, 57, 1)" stroke-width="1.5"></path><path d="M969.39 -62.06L861.21 213.78" stroke="rgba(57, 57, 57, 1)" stroke-width="1.5"></path><path d="M1002.43 39.81L1002.43 39.81" stroke="rgba(57, 57, 57, 1)" stroke-width="1.5"></path><path d="M1002.43 39.81L1160.32 107.29" stroke="rgba(57, 57, 57, 1)" stroke-width="1.5"></path><path d="M1004.31 406.64L1004.31 406.64" stroke="rgba(57, 57, 57, 1)" stroke-width="1.5"></path><path d="M1004.31 406.64L1128.84 391.48" stroke="rgba(57, 57, 57, 1)" stroke-width="1.5"></path><path d="M1004.31 406.64L1138.23 246.64" stroke="rgba(57, 57, 57, 1)" stroke-width="1.5"></path><path d="M1004.31 406.64L861.21 213.78" stroke="rgba(57, 57, 57, 1)" stroke-width="1.5"></path><path d="M1161.01 -70.89L1161.01 -70.89" stroke="rgba(57, 57, 57, 1)" stroke-width="1.5"></path><path d="M1161.01 -70.89L1309.72 -109.64" stroke="rgba(57, 57, 57, 1)" stroke-width="1.5"></path><path d="M1160.32 107.29L1160.32 107.29" stroke="rgba(57, 57, 57, 1)" stroke-width="1.5"></path><path d="M1160.32 107.29L1138.23 246.64" stroke="rgba(57, 57, 57, 1)" stroke-width="1.5"></path><path d="M1160.32 107.29L1305.03 107.25" stroke="rgba(57, 57, 57, 1)" stroke-width="1.5"></path><path d="M1160.32 107.29L1261.25 246.71" stroke="rgba(57, 57, 57, 1)" stroke-width="1.5"></path><path d="M1160.32 107.29L1161.01 -70.89" stroke="rgba(57, 57, 57, 1)" stroke-width="1.5"></path><path d="M1138.23 246.64L1138.23 246.64" stroke="rgba(57, 57, 57, 1)" stroke-width="1.5"></path><path d="M1138.23 246.64L1261.25 246.71" stroke="rgba(57, 57, 57, 1)" stroke-width="1.5"></path><path d="M1128.84 391.48L1128.84 391.48" stroke="rgba(57, 57, 57, 1)" stroke-width="1.5"></path><path d="M1128.84 391.48L1138.23 246.64" stroke="rgba(57, 57, 57, 1)" stroke-width="1.5"></path><path d="M1128.84 391.48L1278.3 340.82" stroke="rgba(57, 57, 57, 1)" stroke-width="1.5"></path><path d="M1309.72 -109.64L1309.72 -109.64" stroke="rgba(57, 57, 57, 1)" stroke-width="1.5"></path><path d="M1309.72 -109.64L1412.8 -108.63" stroke="rgba(57, 57, 57, 1)" stroke-width="1.5"></path><path d="M1305.03 107.25L1305.03 107.25" stroke="rgba(57, 57, 57, 1)" stroke-width="1.5"></path><path d="M1305.03 107.25L1439.89 68.44" stroke="rgba(57, 57, 57, 1)" stroke-width="1.5"></path><path d="M1261.25 246.71L1261.25 246.71" stroke="rgba(57, 57, 57, 1)" stroke-width="1.5"></path><path d="M1261.25 246.71L1278.3 340.82" stroke="rgba(57, 57, 57, 1)" stroke-width="1.5"></path><path d="M1278.3 340.82L1278.3 340.82" stroke="rgba(57, 57, 57, 1)" stroke-width="1.5"></path><path d="M1278.3 340.82L1394.12 376.32" stroke="rgba(57, 57, 57, 1)" stroke-width="1.5"></path><path d="M1412.8 -108.63L1412.8 -108.63" stroke="rgba(57, 57, 57, 1)" stroke-width="1.5"></path><path d="M1412.8 -108.63L1439.89 68.44" stroke="rgba(57, 57, 57, 1)" stroke-width="1.5"></path><path d="M1412.8 -108.63L1586.48 -47.88" stroke="rgba(57, 57, 57, 1)" stroke-width="1.5"></path><path d="M1412.8 -108.63L1577.89 53.04" stroke="rgba(57, 57, 57, 1)" stroke-width="1.5"></path><path d="M1412.8 -108.63L1305.03 107.25" stroke="rgba(57, 57, 57, 1)" stroke-width="1.5"></path><path d="M1439.89 68.44L1439.89 68.44" stroke="rgba(57, 57, 57, 1)" stroke-width="1.5"></path><path d="M1439.89 68.44L1577.89 53.04" stroke="rgba(57, 57, 57, 1)" stroke-width="1.5"></path><path d="M1439.89 68.44L1429.6 209.51" stroke="rgba(57, 57, 57, 1)" stroke-width="1.5"></path><path d="M1439.89 68.44L1547.89 216.4" stroke="rgba(57, 57, 57, 1)" stroke-width="1.5"></path><path d="M1439.89 68.44L1586.48 -47.88" stroke="rgba(57, 57, 57, 1)" stroke-width="1.5"></path><path d="M1429.6 209.51L1429.6 209.51" stroke="rgba(57, 57, 57, 1)" stroke-width="1.5"></path><path d="M1429.6 209.51L1547.89 216.4" stroke="rgba(57, 57, 57, 1)" stroke-width="1.5"></path><path d="M1394.12 376.32L1394.12 376.32" stroke="rgba(57, 57, 57, 1)" stroke-width="1.5"></path><path d="M1394.12 376.32L1429.6 209.51" stroke="rgba(57, 57, 57, 1)" stroke-width="1.5"></path><path d="M1394.12 376.32L1562.85 346.17" stroke="rgba(57, 57, 57, 1)" stroke-width="1.5"></path><path d="M1586.48 -47.88L1586.48 -47.88" stroke="rgba(57, 57, 57, 1)" stroke-width="1.5"></path><path d="M1586.48 -47.88L1577.89 53.04" stroke="rgba(57, 57, 57, 1)" stroke-width="1.5"></path><path d="M1577.89 53.04L1577.89 53.04" stroke="rgba(57, 57, 57, 1)" stroke-width="1.5"></path><path d="M1577.89 53.04L1547.89 216.4" stroke="rgba(57, 57, 57, 1)" stroke-width="1.5"></path><path d="M1577.89 53.04L1429.6 209.51" stroke="rgba(57, 57, 57, 1)" stroke-width="1.5"></path><path d="M1547.89 216.4L1547.89 216.4" stroke="rgba(57, 57, 57, 1)" stroke-width="1.5"></path><path d="M1547.89 216.4L1562.85 346.17" stroke="rgba(57, 57, 57, 1)" stroke-width="1.5"></path><path d="M1562.85 346.17L1562.85 346.17" stroke="rgba(57, 57, 57, 1)" stroke-width="1.5"></path><circle r="5" cx="-108.44" cy="239.67" fill="rgba(57, 57, 57, 1)"></circle><circle r="5" cx="-52.05" cy="337.76" fill="rgba(57, 57, 57, 1)"></circle><circle r="5" cx="110.85" cy="213.58" fill="rgba(57, 57, 57, 1)"></circle><circle r="5" cx="62.68" cy="388.87" fill="rgba(57, 57, 57, 1)"></circle><circle r="5" cx="218.82" cy="250.14" fill="rgba(57, 57, 57, 1)"></circle><circle r="5" cx="247.6" cy="386.38" fill="rgba(57, 57, 57, 1)"></circle><circle r="5" cx="382.48" cy="234.5" fill="rgba(57, 57, 57, 1)"></circle><circle r="5" cx="384.51" cy="383.11" fill="rgba(57, 57, 57, 1)"></circle><circle r="5" cx="530.47" cy="356.15" fill="rgba(57, 57, 57, 1)"></circle><circle r="5" cx="666.68" cy="190.21" fill="rgba(57, 57, 57, 1)"></circle><circle r="5" cx="708.94" cy="350.58" fill="rgba(57, 57, 57, 1)"></circle><circle r="5" cx="851.27" cy="80.42" fill="rgba(57, 57, 57, 1)"></circle><circle r="5" cx="861.21" cy="213.78" fill="rgba(57, 57, 57, 1)"></circle><circle r="5" cx="804.48" cy="388.23" fill="rgba(57, 57, 57, 1)"></circle><circle r="5" cx="969.39" cy="-62.06" fill="rgba(57, 57, 57, 1)"></circle><circle r="5" cx="1002.43" cy="39.81" fill="rgba(57, 57, 57, 1)"></circle><circle r="5" cx="1004.31" cy="406.64" fill="rgba(57, 57, 57, 1)"></circle><circle r="5" cx="1161.01" cy="-70.89" fill="rgba(57, 57, 57, 1)"></circle><circle r="5" cx="1160.32" cy="107.29" fill="rgba(57, 57, 57, 1)"></circle><circle r="5" cx="1138.23" cy="246.64" fill="rgba(57, 57, 57, 1)"></circle><circle r="5" cx="1128.84" cy="391.48" fill="rgba(57, 57, 57, 1)"></circle><circle r="5" cx="1309.72" cy="-109.64" fill="rgba(57, 57, 57, 1)"></circle><circle r="5" cx="1305.03" cy="107.25" fill="rgba(57, 57, 57, 1)"></circle><circle r="5" cx="1261.25" cy="246.71" fill="rgba(57, 57, 57, 1)"></circle><circle r="5" cx="1278.3" cy="340.82" fill="rgba(57, 57, 57, 1)"></circle><circle r="5" cx="1412.8" cy="-108.63" fill="rgba(57, 57, 57, 1)"></circle><circle r="5" cx="1439.89" cy="68.44" fill="rgba(57, 57, 57, 1)"></circle><circle r="5" cx="1429.6" cy="209.51" fill="rgba(57, 57, 57, 1)"></circle><circle r="5" cx="1394.12" cy="376.32" fill="rgba(57, 57, 57, 1)"></circle><circle r="5" cx="1586.48" cy="-47.88" fill="rgba(57, 57, 57, 1)"></circle><circle r="5" cx="1577.89" cy="53.04" fill="rgba(57, 57, 57, 1)"></circle><circle r="5" cx="1547.89" cy="216.4" fill="rgba(57, 57, 57, 1)"></circle><circle r="5" cx="1562.85" cy="346.17" fill="rgba(57, 57, 57, 1)"></circle><path d="M1130.09 56.6L1130.09 56.6" stroke="hsl(0, 0%, 100%)" stroke-width="1.5"></path><path d="M1130.09 56.6L1249 51.77" stroke="hsl(0, 0%, 100%)" stroke-width="1.5"></path><path d="M1130.09 56.6L1098.64 191.88" stroke="hsl(0, 0%, 100%)" stroke-width="1.5"></path><path d="M1130.09 56.6L1287.1 -83.11" stroke="hsl(0, 0%, 100%)" stroke-width="1.5"></path><path d="M1130.09 56.6L1291.53 207.01" stroke="hsl(0, 0%, 100%)" stroke-width="1.5"></path><path d="M1130.09 56.6L977.47 233.73" stroke="hsl(0, 0%, 100%)" stroke-width="1.5"></path><path d="M1284.08 347.79L1284.08 347.79" stroke="hsl(0, 0%, 100%)" stroke-width="1.5"></path><path d="M1284.08 347.79L1398.21 344.98" stroke="hsl(0, 0%, 100%)" stroke-width="1.5"></path><path d="M1284.08 347.79L1291.53 207.01" stroke="hsl(0, 0%, 100%)" stroke-width="1.5"></path><path d="M1284.08 347.79L1137.16 367.55" stroke="hsl(0, 0%, 100%)" stroke-width="1.5"></path><path d="M1603.43 -88.14L1603.43 -88.14" stroke="hsl(0, 0%, 100%)" stroke-width="1.5"></path><path d="M1603.43 -88.14L1424.55 -75.28" stroke="hsl(0, 0%, 100%)" stroke-width="1.5"></path><path d="M1603.43 -88.14L1538.09 98.25" stroke="hsl(0, 0%, 100%)" stroke-width="1.5"></path><path d="M1603.43 -88.14L1407.91 112.01" stroke="hsl(0, 0%, 100%)" stroke-width="1.5"></path><path d="M1603.43 -88.14L1287.1 -83.11" stroke="hsl(0, 0%, 100%)" stroke-width="1.5"></path><path d="M-98.01 388.42L-98.01 388.42" stroke="hsl(0, 0%, 100%)" stroke-width="1.5"></path><path d="M-98.01 388.42L52.23 387.65" stroke="hsl(0, 0%, 100%)" stroke-width="1.5"></path><path d="M52.23 387.65L52.23 387.65" stroke="hsl(0, 0%, 100%)" stroke-width="1.5"></path><path d="M52.23 387.65L552.5 395.31" stroke="hsl(0, 0%, 100%)" stroke-width="1.5"></path><path d="M555.92 257.18L555.92 257.18" stroke="hsl(0, 0%, 100%)" stroke-width="1.5"></path><path d="M555.92 257.18L552.5 395.31" stroke="hsl(0, 0%, 100%)" stroke-width="1.5"></path><path d="M555.92 257.18L709.85 407.9" stroke="hsl(0, 0%, 100%)" stroke-width="1.5"></path><path d="M555.92 257.18L795.49 402.43" stroke="hsl(0, 0%, 100%)" stroke-width="1.5"></path><path d="M552.5 395.31L552.5 395.31" stroke="hsl(0, 0%, 100%)" stroke-width="1.5"></path><path d="M552.5 395.31L709.85 407.9" stroke="hsl(0, 0%, 100%)" stroke-width="1.5"></path><path d="M552.5 395.31L795.49 402.43" stroke="hsl(0, 0%, 100%)" stroke-width="1.5"></path><path d="M552.5 395.31L844.27 201.32" stroke="hsl(0, 0%, 100%)" stroke-width="1.5"></path><path d="M552.5 395.31L1003.41 381.71" stroke="hsl(0, 0%, 100%)" stroke-width="1.5"></path><path d="M709.85 407.9L709.85 407.9" stroke="hsl(0, 0%, 100%)" stroke-width="1.5"></path><path d="M709.85 407.9L795.49 402.43" stroke="hsl(0, 0%, 100%)" stroke-width="1.5"></path><path d="M844.27 201.32L844.27 201.32" stroke="hsl(0, 0%, 100%)" stroke-width="1.5"></path><path d="M844.27 201.32L977.47 233.73" stroke="hsl(0, 0%, 100%)" stroke-width="1.5"></path><path d="M844.27 201.32L795.49 402.43" stroke="hsl(0, 0%, 100%)" stroke-width="1.5"></path><path d="M844.27 201.32L1003.41 381.71" stroke="hsl(0, 0%, 100%)" stroke-width="1.5"></path><path d="M844.27 201.32L709.85 407.9" stroke="hsl(0, 0%, 100%)" stroke-width="1.5"></path><path d="M844.27 201.32L1098.64 191.88" stroke="hsl(0, 0%, 100%)" stroke-width="1.5"></path><path d="M844.27 201.32L555.92 257.18" stroke="hsl(0, 0%, 100%)" stroke-width="1.5"></path><path d="M795.49 402.43L795.49 402.43" stroke="hsl(0, 0%, 100%)" stroke-width="1.5"></path><path d="M795.49 402.43L1003.41 381.71" stroke="hsl(0, 0%, 100%)" stroke-width="1.5"></path><path d="M977.47 233.73L977.47 233.73" stroke="hsl(0, 0%, 100%)" stroke-width="1.5"></path><path d="M977.47 233.73L1098.64 191.88" stroke="hsl(0, 0%, 100%)" stroke-width="1.5"></path><path d="M1003.41 381.71L1003.41 381.71" stroke="hsl(0, 0%, 100%)" stroke-width="1.5"></path><path d="M1003.41 381.71L1137.16 367.55" stroke="hsl(0, 0%, 100%)" stroke-width="1.5"></path><path d="M1003.41 381.71L977.47 233.73" stroke="hsl(0, 0%, 100%)" stroke-width="1.5"></path><path d="M1003.41 381.71L1098.64 191.88" stroke="hsl(0, 0%, 100%)" stroke-width="1.5"></path><path d="M1098.64 191.88L1098.64 191.88" stroke="hsl(0, 0%, 100%)" stroke-width="1.5"></path><path d="M1098.64 191.88L1137.16 367.55" stroke="hsl(0, 0%, 100%)" stroke-width="1.5"></path><path d="M1098.64 191.88L1291.53 207.01" stroke="hsl(0, 0%, 100%)" stroke-width="1.5"></path><path d="M1098.64 191.88L1249 51.77" stroke="hsl(0, 0%, 100%)" stroke-width="1.5"></path><path d="M1137.16 367.55L1137.16 367.55" stroke="hsl(0, 0%, 100%)" stroke-width="1.5"></path><path d="M1137.16 367.55L977.47 233.73" stroke="hsl(0, 0%, 100%)" stroke-width="1.5"></path><path d="M1137.16 367.55L1291.53 207.01" stroke="hsl(0, 0%, 100%)" stroke-width="1.5"></path><path d="M1137.16 367.55L1398.21 344.98" stroke="hsl(0, 0%, 100%)" stroke-width="1.5"></path><path d="M1287.1 -83.11L1287.1 -83.11" stroke="hsl(0, 0%, 100%)" stroke-width="1.5"></path><path d="M1287.1 -83.11L1424.55 -75.28" stroke="hsl(0, 0%, 100%)" stroke-width="1.5"></path><path d="M1287.1 -83.11L1249 51.77" stroke="hsl(0, 0%, 100%)" stroke-width="1.5"></path><path d="M1287.1 -83.11L1407.91 112.01" stroke="hsl(0, 0%, 100%)" stroke-width="1.5"></path><path d="M1287.1 -83.11L1291.53 207.01" stroke="hsl(0, 0%, 100%)" stroke-width="1.5"></path><path d="M1287.1 -83.11L1538.09 98.25" stroke="hsl(0, 0%, 100%)" stroke-width="1.5"></path><path d="M1249 51.77L1249 51.77" stroke="hsl(0, 0%, 100%)" stroke-width="1.5"></path><path d="M1249 51.77L1291.53 207.01" stroke="hsl(0, 0%, 100%)" stroke-width="1.5"></path><path d="M1291.53 207.01L1291.53 207.01" stroke="hsl(0, 0%, 100%)" stroke-width="1.5"></path><path d="M1291.53 207.01L1416.58 250.68" stroke="hsl(0, 0%, 100%)" stroke-width="1.5"></path><path d="M1291.53 207.01L1407.91 112.01" stroke="hsl(0, 0%, 100%)" stroke-width="1.5"></path><path d="M1424.55 -75.28L1424.55 -75.28" stroke="hsl(0, 0%, 100%)" stroke-width="1.5"></path><path d="M1407.91 112.01L1407.91 112.01" stroke="hsl(0, 0%, 100%)" stroke-width="1.5"></path><path d="M1407.91 112.01L1538.09 98.25" stroke="hsl(0, 0%, 100%)" stroke-width="1.5"></path><path d="M1407.91 112.01L1416.58 250.68" stroke="hsl(0, 0%, 100%)" stroke-width="1.5"></path><path d="M1407.91 112.01L1249 51.77" stroke="hsl(0, 0%, 100%)" stroke-width="1.5"></path><path d="M1407.91 112.01L1424.55 -75.28" stroke="hsl(0, 0%, 100%)" stroke-width="1.5"></path><path d="M1407.91 112.01L1580.54 229.3" stroke="hsl(0, 0%, 100%)" stroke-width="1.5"></path><path d="M1416.58 250.68L1416.58 250.68" stroke="hsl(0, 0%, 100%)" stroke-width="1.5"></path><path d="M1416.58 250.68L1398.21 344.98" stroke="hsl(0, 0%, 100%)" stroke-width="1.5"></path><path d="M1416.58 250.68L1284.08 347.79" stroke="hsl(0, 0%, 100%)" stroke-width="1.5"></path><path d="M1416.58 250.68L1580.54 229.3" stroke="hsl(0, 0%, 100%)" stroke-width="1.5"></path><path d="M1398.21 344.98L1398.21 344.98" stroke="hsl(0, 0%, 100%)" stroke-width="1.5"></path><path d="M1398.21 344.98L1291.53 207.01" stroke="hsl(0, 0%, 100%)" stroke-width="1.5"></path><path d="M1398.21 344.98L1580.54 229.3" stroke="hsl(0, 0%, 100%)" stroke-width="1.5"></path><path d="M1398.21 344.98L1407.91 112.01" stroke="hsl(0, 0%, 100%)" stroke-width="1.5"></path><path d="M1538.09 98.25L1538.09 98.25" stroke="hsl(0, 0%, 100%)" stroke-width="1.5"></path><path d="M1538.09 98.25L1580.54 229.3" stroke="hsl(0, 0%, 100%)" stroke-width="1.5"></path><path d="M1538.09 98.25L1416.58 250.68" stroke="hsl(0, 0%, 100%)" stroke-width="1.5"></path><path d="M1538.09 98.25L1424.55 -75.28" stroke="hsl(0, 0%, 100%)" stroke-width="1.5"></path><path d="M1580.54 229.3L1580.54 229.3" stroke="hsl(0, 0%, 100%)" stroke-width="1.5"></path><path d="M1580.54 229.3L1291.53 207.01" stroke="hsl(0, 0%, 100%)" stroke-width="1.5"></path><path d="M1580.54 229.3L1603.43 -88.14" stroke="hsl(0, 0%, 100%)" stroke-width="1.5"></path><circle r="25" cx="1130.09" cy="56.6" fill="url(&quot;#SvgjsRadialGradient1043&quot;)"></circle><circle r="25" cx="1284.08" cy="347.79" fill="url(&quot;#SvgjsRadialGradient1043&quot;)"></circle><circle r="25" cx="1603.43" cy="-88.14" fill="url(&quot;#SvgjsRadialGradient1043&quot;)"></circle><circle r="5" cx="-98.01" cy="388.42" fill="#fdfdfd"></circle><circle r="5" cx="52.23" cy="387.65" fill="#fdfdfd"></circle><circle r="5" cx="555.92" cy="257.18" fill="#fdfdfd"></circle><circle r="5" cx="552.5" cy="395.31" fill="#fdfdfd"></circle><circle r="5" cx="709.85" cy="407.9" fill="#fdfdfd"></circle><circle r="5" cx="844.27" cy="201.32" fill="#fdfdfd"></circle><circle r="5" cx="795.49" cy="402.43" fill="#fdfdfd"></circle><circle r="5" cx="977.47" cy="233.73" fill="#fdfdfd"></circle><circle r="5" cx="1003.41" cy="381.71" fill="#fdfdfd"></circle><circle r="5" cx="1098.64" cy="191.88" fill="#fdfdfd"></circle><circle r="5" cx="1137.16" cy="367.55" fill="#fdfdfd"></circle><circle r="5" cx="1287.1" cy="-83.11" fill="#fdfdfd"></circle><circle r="5" cx="1249" cy="51.77" fill="#fdfdfd"></circle><circle r="5" cx="1291.53" cy="207.01" fill="#fdfdfd"></circle><circle r="5" cx="1424.55" cy="-75.28" fill="#fdfdfd"></circle><circle r="5" cx="1407.91" cy="112.01" fill="#fdfdfd"></circle><circle r="5" cx="1416.58" cy="250.68" fill="#fdfdfd"></circle><circle r="5" cx="1398.21" cy="344.98" fill="#fdfdfd"></circle><circle r="5" cx="1538.09" cy="98.25" fill="#fdfdfd"></circle><circle r="5" cx="1580.54" cy="229.3" fill="#fdfdfd"></circle></g><defs><mask id="SvgjsMask1042"><rect width="1440" height="300" fill="#ffffff"></rect></mask><radialGradient id="SvgjsRadialGradient1043"><stop stop-color="#ffffff" offset="0.1"></stop><stop stop-color="rgba(250, 250, 250, 1)" offset="0.2"></stop><stop stop-color="rgba(250, 250, 250, 0)" offset="1"></stop></radialGradient></defs></svg>